<svg version="1.1" id="Layer_1" xmlns="http://www.w3.org/2000/svg" xmlns:xlink="http://www.w3.org/1999/xlink" x="0px" y="0px" viewBox="0 0 100 100" enable-background="new 0 0 100 100" xml:space="preserve">
<circle fill="#0A0A0B" cx="50" cy="49.794" r="48.794"/>
<g>
	<path fill="#F2F2F2" d="M73.88,35.788l-0.004-0.05l-0.05,0.003l-3.973-3.609l0.001-0.031H69.82l-0.542-0.493L51.021,42.046
		l-0.012,3.9l11.341-2.133l-6.807,30.166l3.856-1.677l14.981-36.06L73.88,35.788z M57.412,71.72l6.417-28.44l5.65-5.946l3.088-0.187
		L58.379,71.299L57.412,71.72z M68.495,36.443l-5.628,5.922l-10.524,1.98l0.004-1.528l16.171-9.246L68.495,36.443z"/>
	<path fill="#F2F2F2" d="M48.978,42.046L30.722,31.608l-0.541,0.493h-0.036v0.031l-3.972,3.608l-0.048-0.003l-0.004,0.049
		l-0.501,0.455l14.98,36.061l3.857,1.677l-6.807-30.166l11.339,2.133L48.978,42.046z M41.621,71.299L27.432,37.146l3.088,0.187
		l5.65,5.945l6.418,28.441L41.621,71.299z M31.505,36.444l-0.022-2.872l16.171,9.246l0.004,1.528l-10.524-1.98L31.505,36.444z"/>
</g>
</svg>
